<svg width="24" height="24" viewBox="0 0 24 24" fill="none" xmlns="http://www.w3.org/2000/svg">
<path d="M16.4643 4C14.6205 4 13.0063 4.78644 12 6.11576C10.9937 4.78644 9.37946 4 7.53571 4C6.06806 4.00164 4.66099 4.58067 3.6232 5.61005C2.58541 6.63944 2.00165 8.03511 2 9.49088C2 15.6903 11.267 20.7082 11.6616 20.9154C11.7656 20.9709 11.8819 21 12 21C12.1181 21 12.2344 20.9709 12.3384 20.9154C12.733 20.7082 22 15.6903 22 9.49088C21.9983 8.03511 21.4146 6.63944 20.3768 5.61005C19.339 4.58067 17.9319 4.00164 16.4643 4Z" fill="#4ADAB1"/>
</svg>
