<svg width="24" height="24" viewBox="0 0 24 24" fill="none" xmlns="http://www.w3.org/2000/svg">
<path d="M16.4643 4C14.6205 4 13.0063 4.78644 12 6.11576C10.9938 4.78644 9.37946 4 7.53571 4C6.06806 4.00164 4.66099 4.58067 3.6232 5.61005C2.58541 6.63944 2.00165 8.03511 2 9.49088C2 15.6903 11.267 20.7082 11.6616 20.9154C11.7656 20.9709 11.8819 21 12 21C12.1181 21 12.2344 20.9709 12.3384 20.9154C12.733 20.7082 22 15.6903 22 9.49088C21.9983 8.03511 21.4146 6.63944 20.3768 5.61005C19.339 4.58067 17.9319 4.00164 16.4643 4Z" fill="white"/>
<path d="M16.4643 4C14.6205 4 13.0063 4.78644 12 6.11576C10.9937 4.78644 9.37946 4 7.53571 4C6.06806 4.00164 4.66099 4.58067 3.6232 5.61005C2.58541 6.63944 2.00165 8.03511 2 9.49088C2 15.6903 11.267 20.7082 11.6616 20.9154C11.7656 20.9709 11.8819 21 12 21C12.1181 21 12.2344 20.9709 12.3384 20.9154C12.733 20.7082 22 15.6903 22 9.49088C21.9983 8.03511 21.4146 6.63944 20.3768 5.61005C19.339 4.58067 17.9319 4.00164 16.4643 4ZM12 19.4807C10.3696 18.5384 3.42857 14.2458 3.42857 9.49088C3.42999 8.41085 3.86316 7.37546 4.63309 6.61176C5.40302 5.84807 6.44687 5.41841 7.53571 5.417C9.27232 5.417 10.7304 6.33451 11.3393 7.80819C11.3931 7.93814 11.4846 8.04928 11.6023 8.1275C11.7199 8.20572 11.8584 8.24748 12 8.24748C12.1416 8.24748 12.2801 8.20572 12.3977 8.1275C12.5154 8.04928 12.6069 7.93814 12.6607 7.80819C13.2696 6.33185 14.7277 5.417 16.4643 5.417C17.5531 5.41841 18.597 5.84807 19.3669 6.61176C20.1368 7.37546 20.57 8.41085 20.5714 9.49088C20.5714 14.2387 13.6286 18.5375 12 19.4807Z" fill="#CCCCCC"/>
</svg>
